# AST/ASF file generated using VICON BodyLanguage
# -----------------------------------------------
:version 1.10
:name VICON
:units
  mass 1.0
  length 0.45
  angle deg
:documentation
   .ast/.asf automatically generated from VICON data using
   VICON BodyBuilder and BodyLanguage model FoxedUp or BRILLIANT.MOD
:root
   order TX TY TZ RX RY RZ
   axis XYZ
   position 0 0 0  
   orientation 0 0 0 
:bonedata
  begin
     id 1 
     name lhipjoint
     direction 0.64773 -0.699417 0.302095 
     length 2.48597 
     axis 0 0 0  XYZ
  end
  begin
     id 2 
     name lfemur
     direction 0.34202 -0.939693 0  
     length 6.71947  
     axis 0 0 20  XYZ
    dof rx ry rz
    limits (-160.0 20.0)
           (-70.0 70.0)
           (-60.0 70.0)
  end
  begin
     id 3 
     name ltibia
     direction 0.34202 -0.939693 0   
     length 8.08777   
     axis 0 0 20   XYZ
    dof rx
    limits (-10.0 170.0)
  end
  begin
     id 4 
     name lfoot
     direction 0.0808503 -0.222134 0.971658   
     length 2.08264   
     axis -90 7.62852e-016 20   XYZ
    dof rx rz
    limits (-45.0 90.0)
           (-70.0 20.0)
  end
  begin
     id 5 
     name ltoes
     direction 1.53502e-011 -4.22007e-011 1   
     length 1.04662   
     axis -90 7.62852e-016 20   XYZ
    dof rx
    limits (-90.0 20.0)
  end
  begin
     id 6 
     name rhipjoint
     direction -0.610924 -0.726792 0.313919   
     length 2.39233  
     axis 0 0 0  XYZ 
  end
  begin
     id 7 
     name rfemur
     direction -0.34202 -0.939693 0   
     length 6.96955   
     axis 0 0 -20   XYZ
    dof rx ry rz
    limits (-160.0 20.0)
           (-70.0 70.0)
           (-70.0 60.0)
  end
  begin
     id 8 
     name rtibia
     direction -0.34202 -0.939693 0   
     length 8.19584   
     axis 0 0 -20   XYZ
    dof rx
    limits (-10.0 170.0)
 end
 begin
     id 9 
     name rfoot
     direction -0.077777 -0.213691 0.9738   
     length 2.07539  
     axis -90 -7.62852e-016 -20   XYZ
    dof rx rz
    limits (-45.0 90.0)
           (-20.0 70.0)
  end
  begin
     id 10 
     name rtoes
     direction -1.53558e-011 -4.22006e-011 1   
     length 1.04381   
     axis -90 -7.62852e-016 -20   XYZ
    dof rx
    limits (-90.0 20.0)
  end
  begin
     id 11 
     name lowerback
     direction -0.00971646 0.996074 0.0879841   
     length 1.67643   
     axis 0 0 0   XYZ
    dof rx ry rz
    limits (-20.0 45.0)
           (-30.0 30.0)
           (-30.0 30.0)
  end
  begin
     id 12 
     name upperback
     direction 0.0127391 0.991676 0.128127   
     length 1.63741   
     axis 0 0 0   XYZ
    dof rx ry rz
    limits (-20.0 45.0)
           (-30.0 30.0)
           (-30.0 30.0)
  end
  begin
     id 13 
     name thorax
     direction 0.0167583 0.996049 0.0872067   
     length 1.65931   
     axis 0 0 0   XYZ
    dof rx ry rz
    limits (-20.0 45.0)
           (-30.0 30.0)
           (-30.0 30.0)
  end
  begin
     id 14 
     name lowerneck
     direction -0.0317829 0.998312 0.0486079   
     length 1.79021   
     axis 0 0 0   XYZ
    dof rx ry rz
    limits (-20.0 45.0)
           (-30.0 30.0)
           (-30.0 30.0)
  end
  begin
     id 15 
     name upperneck
     direction 0.0896851 0.972452 -0.215159   
     length 1.78797   
     axis 0 0 0   XYZ
    dof rx ry rz
    limits (-20.0 45.0)
           (-30.0 30.0)
           (-30.0 30.0)
  end
  begin
     id 16
     name head
     direction 0.0310949 0.996503 -0.0775582  
     length 1.81549  
     axis 0 0 0   XYZ
    dof rx ry rz
    limits (-20.0 45.0)
           (-30.0 30.0)
           (-30.0 30.0)
  end
  begin
     id 17 
     name lclavicle
     direction 0.853638 0.502051 -0.138733  
     length 3.31627  
     axis 0 0 0   XYZ
    dof ry rz
    limits (-20.0 10.0)
           (0.0 20.0)
  end
  begin
     id 18 
     name lhumerus
     direction 1 -4.48962e-011 -1.41788e-018   
     length 5.54893   
     axis 180 -30 -90   XYZ
    dof rx ry rz
    limits (-60.0 90.0)
           (-90.0 90.0)
           (-90.0 90.0)
  end
  begin
     id 19
     name lradius
     direction 1 -4.48962e-011 -4.95754e-027   
     length 3.02898   
     axis 180 -30 -90   XYZ
    dof rx
    limits (-10.0 170.0)
  end
  begin
     id 20
     name lwrist
     direction 1 -4.48952e-011 -1.03764e-026   
     length 1.51449   
     axis 9.09556e-015 90 90   XYZ
    dof ry
    limits (-180.0 0.0)
 end
  begin
     id 21 
     name lhand
     direction 1 -4.4902e-011 -2.07528e-026   
     length 0.640951   
     axis 1.3242e-014 90 90   XYZ
    dof rx rz
    limits (-90.0 90.0)
           (-45.0 45.0)
  end
  begin
     id 22 
     name lfingers
     direction 1 -4.49014e-011 -4.15056e-026   
     length 0.516751   
     axis 2.64841e-014 90 90   XYZ
    dof rx
    limits (0.0 90.0)
  end
  begin
     id 23
     name lthumb
     direction 0.707107 -6.35008e-011 0.707107   
     length 0.741954   
     axis -90 45 2.85299e-015   XYZ
    dof rx rz
    limits (-45.0 45.0)
           (-45.0 45.0)
  end
  begin
     id 24 
     name rclavicle
     direction -0.888531 0.455324 -0.0565039   
     length 3.20126  
     axis 0 0 0   XYZ 
    dof ry rz
    limits (-10.0 20.0)
           (-20.0 0.0)
  end
  begin
     id 25 
     name rhumerus
     direction -1 -4.48946e-011 -8.98298e-028  
     length 5.3519   
     axis 180 30 90   XYZ
    dof rx ry rz
    limits (-90.0 60.0)
           (-90.0 90.0)
           (-90.0 90.0)
  end
  begin
     id 26 
     name rradius
     direction -1 -4.4899e-011 -3.18779e-027   
     length 3.02531   
     axis 180 30 90   XYZ
    dof rx
    limits (-10.0 170.0)
  end
  begin
     id 27 
     name rwrist
     direction -1 -4.4897e-011 -1.03764e-026   
     length 1.51266   
     axis 9.09556e-015 -90 -90   XYZ
    dof ry
    limits (-180.0 0.0)
  end
  begin
     id 28
     name rhand
     direction -1 -4.48941e-011 -2.07528e-026   
     length 0.78389   
     axis 1.3242e-014 -90 -90   XYZ
    dof rx rz
    limits (-90.0 90.0)
           (-45.0 45.0)
  end
  begin
     id 29
     name rfingers
     direction -1 -4.49012e-011 -4.15056e-026   
     length 0.631992   
     axis 2.64841e-014 -90 -90   XYZ
    dof rx
    limits (0.0 90.0)
  end
  begin
     id 30
     name rthumb
     direction -0.707107 -6.3496e-011 0.707107   
     length 0.907418   
     axis -90 -45 -2.85299e-015   XYZ
    dof rx rz
    limits (-45.0 45.0)
           (-45.0 45.0)
  end
:hierarchy
  begin
    root lhipjoint rhipjoint lowerback
    lhipjoint lfemur
    lfemur ltibia
    ltibia lfoot
    lfoot ltoes
    rhipjoint rfemur
    rfemur rtibia
    rtibia rfoot
    rfoot rtoes
    lowerback upperback
    upperback thorax
    thorax lowerneck lclavicle rclavicle
    lowerneck upperneck
    upperneck head
    lclavicle lhumerus
    lhumerus lradius
    lradius lwrist
    lwrist lhand lthumb
    lhand lfingers
    rclavicle rhumerus
    rhumerus rradius
    rradius rwrist
    rwrist rhand rthumb
    rhand rfingers
  end

#!OML:ASF E:\Style3\Style3.ASF
:FULLY-SPECIFIED
:DEGREES
2574
root 0.145707 17.7975 1.1396 -166.93 65.425 179.418
lowerback -6.43117 -1.66019 -1.18579
upperback -7.19901 -1.83521 -0.378217
thorax -3.81842 -0.724973 0.20754
lowerneck -12.0318 -1.16424 -5.33507
upperneck 30.3316 4.119 -9.18961
head 12.212 0.62858 -1.86586
rclavicle 3.85394e-014 -3.97569e-015
rhumerus 7.73915 44.7691 -53.3141
rradius 132.274
rwrist -19.9072
rhand 21.782 17.5721
rfingers 7.12502
rthumb 46.1914 -5.44237
lclavicle 3.85394e-014 -3.97569e-015
lhumerus -24.844 -32.9998 83.426
lradius 119.303
lwrist 19.6242
lhand 18.8788 23.8324
lfingers 7.12502
lthumb 43.4892 47.9032
rfemur -9.5345 8.46451 19.1464
rtibia 13.0021
rfoot -18.678 -29.6554
rtoes -8.72751
lfemur -12.4471 -18.503 -9.87349
ltibia -1.82882e-014
lfoot -2.44146 4.68173
ltoes -25.7549
2575
root 0.146229 17.7979 1.13956 -166.889 65.3144 179.401
lowerback -6.4895 -1.85705 -1.25125
upperback -7.24671 -2.08867 -0.269354
thorax -3.827 -0.844232 0.347544
lowerneck -11.8563 -2.56251 -6.28947
upperneck 29.739 2.61984 -10.4805
head 11.943 -0.288986 -2.38641
rclavicle -3.05631e-015 6.75868e-015
rhumerus 8.31739 45.1665 -53.0197
rradius 132.444
rwrist -20.027
rhand 21.7925 17.4737
rfingers 7.12502
rthumb 46.2012 -5.53659
lclavicle -3.05631e-015 6.75868e-015
lhumerus -25.1543 -32.5125 83.3682
lradius 119.339
lwrist 19.6408
lhand 18.7651 23.8257
lfingers 7.12502
lthumb 43.383 47.9348
rfemur -9.58419 8.40588 19.1492
rtibia 13.0021
rfoot -18.7006 -29.6745
rtoes -8.92845
lfemur -12.5334 -18.5967 -9.83204
ltibia -5.56597e-015
lfoot -2.39897 4.68843
ltoes -26.0995
2576
root 0.145071 17.7985 1.13933 -166.915 65.2191 179.316
lowerback -6.50081 -2.02644 -1.30647
upperback -7.32182 -2.30623 -0.200534
thorax -3.89193 -0.945733 0.443218
lowerneck -11.3998 -3.96263 -7.2386
upperneck 28.9412 1.02111 -11.7085
head 11.5283 -1.22148 -2.86995
rclavicle 9.59385e-014 1.09332e-014
rhumerus 8.76449 45.4913 -52.8083
rradius 132.588
rwrist -20.1537
rhand 21.8536 17.4863
rfingers 7.12502
rthumb 46.2577 -5.50015
lclavicle 9.59385e-014 1.09332e-014
lhumerus -25.4508 -32.1066 83.2612
lradius 119.373
lwrist 19.6199
lhand 18.6075 23.7607
lfingers 7.12502
lthumb 43.2357 47.9229
rfemur -9.62504 8.41628 19.1154
rtibia 12.997
rfoot -18.7745 -29.7373
rtoes -8.77427
lfemur -12.6219 -18.6843 -9.82878
ltibia -3.02153e-014
lfoot -2.40858 4.6929
ltoes -26.2052
2577
root 0.144247 17.7997 1.13881 -166.876 65.1363 179.333
lowerback -6.44178 -2.22557 -1.33186
upperback -7.38336 -2.568 -0.111628
thorax -3.98046 -1.07116 0.544069
lowerneck -10.9022 -5.23685 -8.20019
upperneck 28.06 -0.490932 -12.7443
head 11.0777 -2.08377 -3.24301
rclavicle 4.89259e-014 1.23246e-014
rhumerus 9.35993 45.8437 -52.5827
rradius 132.6
rwrist -20.1877
rhand 21.8298 17.693
rfingers 7.12502
rthumb 46.2357 -5.30274
lclavicle 4.89259e-014 1.23246e-014
lhumerus -25.6738 -31.6215 83.0615
lradius 119.377
lwrist 19.486
lhand 18.4331 23.8092
lfingers 7.12502
lthumb 43.0727 48.0294
rfemur -9.6301 8.3858 19.1335
rtibia 12.9803
rfoot -18.8172 -29.7911
rtoes -8.53424
lfemur -12.6816 -18.7515 -9.78276
ltibia -4.29375e-014
lfoot -2.41774 4.65522
ltoes -26.0964
2578
root 0.144059 17.8004 1.13844 -166.841 65.0464 179.337
lowerback -6.39602 -2.49428 -1.41155
upperback -7.44864 -2.92019 -0.0180029
thorax -4.06 -1.23896 0.677483
lowerneck -10.2955 -6.27707 -8.94507
upperneck 26.9621 -1.83616 -13.6462
head 10.5256 -2.81264 -3.54578
rclavicle -2.28602e-015 2.18663e-015
rhumerus 10.2005 46.2602 -52.2761
rradius 132.614
rwrist -20.3969
rhand 21.859 17.791
rfingers 7.12502
rthumb 46.2628 -5.19332
lclavicle -2.28602e-015 2.18663e-015
lhumerus -25.9054 -31.0017 82.7309
lradius 119.373
lwrist 19.3052
lhand 18.2368 23.7175
lfingers 7.12502
lthumb 42.8892 48.0024
rfemur -9.65153 8.38854 19.1448
rtibia 12.9784
rfoot -18.8521 -29.8769
rtoes -8.39015
lfemur -12.7477 -18.8237 -9.73097
ltibia -9.54166e-015
lfoot -2.4687 4.64139
ltoes -25.876
2579
root 0.14458 17.7999 1.13932 -166.9 64.9747 179.249
lowerback -6.34118 -2.75322 -1.5729
upperback -7.55381 -3.25453 0.0639599
thorax -4.18154 -1.39193 0.846655
lowerneck -9.3599 -7.17258 -9.53931
upperneck 25.6377 -3.12421 -14.5068
head 9.82855 -3.46004 -3.8016
rclavicle 1.03865e-014 -6.36111e-015
rhumerus 10.919 46.7017 -52.0361
rradius 132.635
rwrist -20.6827
rhand 21.91 17.7321
rfingers 7.12502
rthumb 46.31 -5.23223
lclavicle 1.03865e-014 -6.36111e-015
lhumerus -26.1413 -30.4119 82.4407
lradius 119.335
lwrist 19.0728
lhand 18.2059 23.7488
lfingers 7.12502
lthumb 42.8603 48.0439
rfemur -9.66184 8.49196 19.1126
rtibia 12.9789
rfoot -18.8859 -30.0151
rtoes -8.35754
lfemur -12.7981 -18.8912 -9.73309
ltibia 0
lfoot -2.45636 4.6216
ltoes -25.9329
2580
root 0.146114 17.8001 1.13917 -166.947 64.9153 179.172
lowerback -6.36986 -2.93685 -1.71167
upperback -7.61773 -3.48845 0.143309
thorax -4.21462 -1.4973 0.998922
lowerneck -8.36738 -8.04287 -10.2849
upperneck 24.4442 -4.40434 -15.1468
head 9.19296 -4.08639 -3.93762
rclavicle -7.30534e-015 1.63003e-014
rhumerus 11.5376 47.0054 -51.7424
rradius 132.686
rwrist -20.9277
rhand 22.0393 17.6277
rfingers 7.12502
rthumb 46.4299 -5.28569
lclavicle -7.30534e-015 1.63003e-014
lhumerus -26.2106 -29.9488 82.255
lradius 119.243
lwrist 18.8155
lhand 18.2712 23.8402
lfingers 7.12502
lthumb 42.9213 48.1139
rfemur -9.67519 8.51131 19.0794
rtibia 12.989
rfoot -19.0548 -30.02
rtoes -8.02381
lfemur -12.8342 -18.9482 -9.74504
ltibia 7.15625e-015
lfoot -2.45187 4.63147
ltoes -25.764
2581
root 0.145543 17.8006 1.13869 -167.058 64.8613 179.044
lowerback -6.40562 -3.05996 -1.78274
upperback -7.65427 -3.64656 0.149892
thorax -4.22436 -1.57104 1.03955
lowerneck -7.328 -8.84304 -11.0913
upperneck 23.401 -5.64816 -15.505
head 8.62653 -4.67178 -3.95309
rclavicle 9.94545e-014 2.64384e-014
rhumerus 11.9956 47.1423 -51.5178
rradius 132.705
rwrist -21.1497
rhand 22.1756 17.6613
rfingers 7.12502
rthumb 46.5561 -5.19806
lclavicle 9.94545e-014 2.64384e-014
lhumerus -26.3292 -29.627 82.011
lradius 119.277
lwrist 18.5075
lhand 18.358 23.7748
lfingers 7.12502
lthumb 43.0025 48.0199
rfemur -9.69014 8.48698 19.0317
rtibia 13.0207
rfoot -19.0962 -30.0663
rtoes -7.91351
lfemur -12.8593 -19.0077 -9.78374
ltibia -4.05521e-014
lfoot -2.42428 4.59275
ltoes -25.8597
2582
root 0.145419 17.7996 1.13919 -167.021 64.8062 179.039
lowerback -6.43329 -3.11022 -1.72501
upperback -7.67625 -3.7143 0.0738604
thorax -4.23897 -1.60845 0.926239
lowerneck -6.52829 -9.4805 -11.6072
upperneck 22.5368 -6.69271 -15.748
head 8.17001 -5.14537 -3.96464
rclavicle 7.20594e-016 -5.36719e-015
rhumerus 12.2649 47.0524 -51.4409
rradius 132.705
rwrist -21.3322
rhand 22.2469 17.7828
rfingers 7.12502
rthumb 46.6222 -5.04804
lclavicle 7.20594e-016 -5.36719e-015
lhumerus -26.2956 -29.4952 81.6963
lradius 119.385
lwrist 18.2347
lhand 18.3492 23.8089
lfingers 7.12502
lthumb 42.9942 48.0569
rfemur -9.75193 8.50141 19.0304
rtibia 13.0517
rfoot -19.1441 -30.1165
rtoes -7.92369
lfemur -12.9312 -19.0493 -9.75645
ltibia -1.66979e-014
lfoot -2.42574 4.60113
ltoes -26.063
2583
root 0.145345 17.7993 1.13891 -167.04 64.7675 178.984
lowerback -6.46803 -3.12849 -1.66743
upperback -7.6279 -3.74393 -0.00267946
thorax -4.17644 -1.63044 0.811326
lowerneck -6.09266 -9.95483 -11.9465
upperneck 21.801 -7.45128 -16.0107
head 7.82819 -5.48929 -4.00392
rclavicle -2.42766e-014 -8.15017e-015
rhumerus 12.717 46.8443 -51.1197
rradius 132.775
rwrist -21.6575
rhand 22.2704 17.6175
rfingers 7.12502
rthumb 46.6439 -5.204
lclavicle -2.42766e-014 -8.15017e-015
lhumerus -25.9773 -29.3729 81.3957
lradius 119.351
lwrist 17.8615
lhand 18.1608 23.683
lfingers 7.12502
lthumb 42.8181 47.9929
rfemur -9.81158 8.47299 19.0094
rtibia 13.1155
rfoot -19.1912 -30.1239
rtoes -8.07594
lfemur -12.9805 -19.0824 -9.76
ltibia 1.59028e-015
lfoot -2.41625 4.5979
ltoes -26.1684
2584
root 0.145721 17.7998 1.13914 -167.083 64.7543 178.966
lowerback -6.40772 -3.24256 -1.7101
upperback -7.61902 -3.89823 0.0109931
thorax -4.19327 -1.7061 0.847351
lowerneck -5.56715 -10.1483 -12.1114
upperneck 21.0032 -7.86003 -16.3324
head 7.4478 -5.64328 -4.04287
rclavicle 7.17861e-014 3.73715e-014
rhumerus 13.3458 46.9024 -50.8209
rradius 132.784
rwrist -21.9653
rhand 22.3563 17.4903
rfingers 7.12502
rthumb 46.7235 -5.29677
lclavicle 7.17861e-014 3.73715e-014
lhumerus -26.0107 -28.9887 81.0706
lradius 119.525
lwrist 17.6002
lhand 18.1185 23.7492
lfingers 7.12502
lthumb 42.7785 48.073
rfemur -9.81286 8.51546 19.0079
rtibia 13.1806
rfoot -19.2529 -30.1437
rtoes -8.01386
lfemur -12.9586 -19.0963 -9.76999
ltibia -3.18055e-014
lfoot -2.34306 4.56172
ltoes -26.0483
2585
root 0.146516 17.7997 1.13956 -167.232 64.7766 178.818
lowerback -6.39079 -3.43009 -1.884
upperback -7.66343 -4.14127 0.0142602
thorax -4.23166 -1.81724 0.94179
lowerneck -4.85742 -10.0856 -11.8712
upperneck 20.1975 -7.97082 -16.8469
head 7.00626 -5.6245 -4.16128
rclavicle 4.26393e-014 -1.0138e-014
rhumerus 13.9096 47.16 -50.6967
rradius 132.726
rwrist -22.0685
rhand 22.3497 17.704
rfingers 7.12502
rthumb 46.7174 -5.0857
lclavicle 4.26393e-014 -1.0138e-014
lhumerus -26.133 -28.486 80.7788
lradius 119.51
lwrist 17.2911
lhand 18.1008 23.6768
lfingers 7.12502
lthumb 42.7619 48.0063
rfemur -9.82372 8.49785 18.94
rtibia 13.2356
rfoot -19.2633 -30.1162
rtoes -7.79274
lfemur -12.934 -19.0887 -9.84826
ltibia -3.33958e-014
lfoot -2.31123 4.5043
ltoes -26.3472
2586
root 0.146676 17.8 1.14038 -167.293 64.7841 178.79
lowerback -6.42788 -3.57085 -2.0217
upperback -7.65205 -4.32368 0.0364118
thorax -4.18247 -1.90219 1.03235
lowerneck -4.39507 -9.91772 -11.5738
upperneck 19.6598 -7.84241 -17.3735
head 6.70663 -5.5115 -4.30448
rclavicle -1.2101e-014 -3.18055e-015
rhumerus 14.4338 47.3254 -50.5263
rradius 132.687
rwrist -22.1614
rhand 22.3256 17.8176
rfingers 7.12502
rthumb 46.6951 -4.98184
lclavicle -1.2101e-014 -3.18055e-015
lhumerus -25.9399 -28.0255 80.7329
lradius 119.144
lwrist 16.9173
lhand 18.1955 23.5122
lfingers 7.12502
lthumb 42.8505 47.8107
rfemur -9.8128 8.45383 18.9364
rtibia 13.2893
rfoot -19.2785 -30.0721
rtoes -7.73584
lfemur -12.891 -19.0845 -9.86817
ltibia -2.22639e-014
lfoot -2.3614 4.50198
ltoes -26.2586
2587
root 0.146369 17.8002 1.14162 -167.291 64.7943 178.832
lowerback -6.48023 -3.6354 -2.14449
upperback -7.57114 -4.40755 0.10625
thorax -4.05072 -1.94134 1.16329
lowerneck -4.25822 -9.6907 -11.2441
upperneck 19.2813 -7.52514 -17.9806
head 6.52445 -5.33171 -4.49568
rclavicle 4.32357e-015 -7.7526e-015
rhumerus 15.0013 47.3065 -50.126
rradius 132.692
rwrist -22.3029
rhand 22.3038 17.6568
rfingers 7.12502
rthumb 46.6749 -5.15138
lclavicle 4.32357e-015 -7.7526e-015
lhumerus -25.7436 -27.6616 80.8211
lradius 118.943
lwrist 16.678
lhand 18.1111 23.4766
lfingers 7.12502
lthumb 42.7716 47.8028
rfemur -9.80663 8.46125 18.961
rtibia 13.3381
rfoot -19.3019 -30.0439
rtoes -7.62816
lfemur -12.84 -19.0705 -9.85703
ltibia 5.88403e-014
lfoot -2.41799 4.48542
ltoes -26.1494
2588
root 0.145246 17.8002 1.14108 -167.353 64.8003 178.776
lowerback -6.4692 -3.63505 -2.17686
upperback -7.5039 -4.41051 0.141149
thorax -3.98053 -1.94437 1.21538
lowerneck -4.33541 -9.36513 -10.9604
upperneck 19.0411 -7.01092 -18.5133
head 6.44569 -5.07292 -4.66593
rclavicle -2.64135e-014 -3.97569e-015
rhumerus 15.461 47.1525 -49.6622
rradius 132.684
rwrist -22.3254
rhand 22.2906 17.6166
rfingers 7.12502
rthumb 46.6627 -5.19686
lclavicle -2.64135e-014 -3.97569e-015
lhumerus -25.7339 -27.4074 80.8137
lradius 119.119
lwrist 16.7317
lhand 17.9128 23.4989
lfingers 7.12502
lthumb 42.586 47.8895
rfemur -9.82758 8.41186 18.9343
rtibia 13.3796
rfoot -19.2209 -30.0419
rtoes -7.69532
lfemur -12.829 -19.0693 -9.89263
ltibia 1.03368e-014
lfoot -2.37644 4.45121
ltoes -26.3164
